<svg width="15" height="15" viewBox="0 0 15.3109 15.3109" fill="none" xmlns="http://www.w3.org/2000/svg">
<path d="M8.82418 10.5697C8.95593 10.6302 9.10437 10.6441 9.24503 10.6089C9.38569 10.5738 9.51019 10.4918 9.59801 10.3764L9.82449 10.0798C9.94334 9.92131 10.0974 9.79269 10.2746 9.70411C10.4518 9.61552 10.6471 9.56941 10.8452 9.56941H12.7591C13.0975 9.56941 13.422 9.70383 13.6613 9.94311C13.9006 10.1824 14.035 10.5069 14.035 10.8453V12.7592C14.035 13.0976 13.9006 13.4221 13.6613 13.6614C13.422 13.9007 13.0975 14.0351 12.7591 14.0351C9.71355 14.0351 6.79276 12.8253 4.63924 10.6717C2.48572 8.51823 1.27589 5.59743 1.27589 2.5519C1.27589 2.21351 1.41032 1.88898 1.6496 1.6497C1.88888 1.41042 2.21341 1.27599 2.5518 1.27599H4.46567C4.80406 1.27599 5.12859 1.41042 5.36787 1.6497C5.60715 1.88898 5.74158 2.21351 5.74158 2.5519V4.46577C5.74158 4.66384 5.69546 4.8592 5.60688 5.03637C5.51829 5.21354 5.38968 5.36765 5.23121 5.48649L4.93265 5.71042C4.81553 5.79984 4.73298 5.92706 4.69902 6.07045C4.66507 6.21384 4.68179 6.36456 4.74637 6.49702C5.61825 8.26789 7.05221 9.70006 8.82418 10.5697Z" stroke="#161515" stroke-width="0.956933" stroke-linecap="round" stroke-linejoin="round"/>
</svg>