<svg width="15" height="15" viewBox="0 0 15.3109 15.3109" fill="none" xmlns="http://www.w3.org/2000/svg">
<path d="M6.37954 8.29344C6.65351 8.65971 7.00305 8.96277 7.40445 9.18207C7.80585 9.40137 8.24971 9.53178 8.70594 9.56446C9.16217 9.59713 9.62009 9.5313 10.0486 9.37144C10.4772 9.21158 10.8664 8.96142 11.1897 8.63793L13.1036 6.72407C13.6846 6.12247 14.0061 5.31672 13.9989 4.48038C13.9916 3.64403 13.6561 2.84399 13.0647 2.25258C12.4733 1.66117 11.6733 1.32571 10.8369 1.31844C10.0006 1.31117 9.19484 1.63268 8.59325 2.21373L7.49596 3.30463" stroke="#161515" stroke-width="0.956933" stroke-linecap="round" stroke-linejoin="round"/>
<path d="M8.93129 7.01753C8.65732 6.65126 8.30778 6.3482 7.90639 6.1289C7.50499 5.90959 7.06112 5.77918 6.60489 5.74651C6.14867 5.71384 5.69075 5.77966 5.26219 5.93953C4.83364 6.09939 4.44448 6.34955 4.12111 6.67303L2.20725 8.5869C1.6262 9.1885 1.30469 9.99424 1.31196 10.8306C1.31923 11.6669 1.65469 12.467 2.2461 13.0584C2.83751 13.6498 3.63755 13.9853 4.4739 13.9925C5.31025 13.9998 6.11599 13.6783 6.71759 13.0972L7.80849 12.0063" stroke="#161515" stroke-width="0.956933" stroke-linecap="round" stroke-linejoin="round"/>
</svg>