<svg width="121" height="18" viewBox="0 0 121 17.6151" fill="none" xmlns="http://www.w3.org/2000/svg">
<g id="Group 1214167214">
<g id="Group 1214167209">
<path id="Vector" d="M13.0112 4.33366L9.81682 8.64957H13.0247V17.2923H17.328V4.31874L13.0112 4.33366Z" fill="#161515"/>
<path id="Vector_2" d="M4.32623 8.64001H4.33972V4.32816H9.80991V4.33358H13.0111L9.82879 0.0257989V0.00681594H9.81396L9.80991 3.62992e-05V0.00681594H0V4.32816H0.010792V8.64001H0.0377719L0.010792 8.6495L0.01349 12.9708V17.2922H4.34242L4.34377 12.983H6.60739L9.81665 8.6495H4.33972L4.32623 8.64001Z" fill="#161515"/>
</g>
<path id="Vector_3" d="M30.7497 5.36565V8.65107H35.8543L34.1371 11.5731H30.7497V17.2883H27.5378V2.36499H38.4714L36.7487 5.36565H30.7511H30.7497Z" fill="#161515"/>
<path id="Vector_4" d="M45.2943 5.71275V8.64968H43.9507C42.2051 8.64968 41.5157 9.42663 41.5157 11.3087V17.2897H38.4184V5.77647H40.4042L40.9546 7.18664C41.7707 6.16834 42.8054 5.71275 44.2758 5.71275H45.2943Z" fill="#161515"/>
<path id="Vector_5" d="M57.9156 11.4915C57.9156 11.7952 57.894 12.1003 57.8562 12.404H49.1876C49.4574 13.9755 50.484 14.8406 51.9868 14.8406C53.0633 14.8406 53.9455 14.3294 54.4163 13.505H57.6714C56.8378 16.0148 54.6456 17.6135 51.9868 17.6135C48.6048 17.6135 46.0458 14.9816 46.0458 11.5308C46.0458 8.07994 48.5873 5.44808 51.9868 5.44808C55.3862 5.44808 57.917 8.1735 57.917 11.4901L57.9156 11.4915ZM49.2685 10.2779H54.8197C54.3812 8.87045 53.3762 8.10706 51.9868 8.10706C50.5973 8.10706 49.6287 8.91519 49.2699 10.2779H49.2685Z" fill="#161515"/>
<path id="Vector_6" d="M70.8795 10.3118V17.2894H67.7822V10.8162C67.7822 9.07521 67.1252 8.2359 65.7843 8.2359C64.1871 8.2359 63.2145 9.38572 63.2145 11.2379V17.2894H60.1172V5.77624H62.2419L62.8462 7.19861C63.7123 6.16133 65.0815 5.50235 66.6409 5.50235C69.2512 5.50235 70.8795 7.39658 70.8795 10.3105V10.3118Z" fill="#161515"/>
<path id="Vector_7" d="M73.4959 13.9594H76.778V17.2896H73.4959V13.9594Z" fill="#161515"/>
<path id="Vector_8" d="M78.2695 9.82667C78.2695 5.3955 81.6609 2.03822 86.1936 2.03822C90.7262 2.03822 94.0825 5.37787 94.0825 9.82667C94.0825 14.2755 90.7087 17.6151 86.1936 17.6151C81.6785 17.6151 78.2695 14.2578 78.2695 9.82667ZM90.826 9.82667C90.826 7.11888 88.8376 5.08634 86.1922 5.08634C83.5468 5.08634 81.5233 7.14058 81.5233 9.82667C81.5233 12.5128 83.5455 14.567 86.1922 14.567C88.8389 14.567 90.826 12.5345 90.826 9.82667Z" fill="#161515"/>
<path id="Vector_9" d="M107.046 10.3118V17.2894H103.948V10.8162C103.948 9.07521 103.292 8.2359 101.951 8.2359C100.353 8.2359 99.3808 9.38572 99.3808 11.2379V17.2894H96.2835V5.77624H98.4082L99.0125 7.19861C99.8786 6.16133 101.248 5.50235 102.807 5.50235C105.418 5.50235 107.046 7.39658 107.046 10.3105V10.3118Z" fill="#161515"/>
<path id="Vector_10" d="M120.999 11.4915C120.999 11.7952 120.977 12.1003 120.94 12.404H112.271C112.541 13.9755 113.567 14.8406 115.07 14.8406C116.147 14.8406 117.029 14.3294 117.5 13.505H120.755C119.921 16.0148 117.729 17.6135 115.07 17.6135C111.688 17.6135 109.129 14.9816 109.129 11.5308C109.129 8.07994 111.671 5.44808 115.07 5.44808C118.47 5.44808 121 8.1735 121 11.4901L120.999 11.4915ZM112.352 10.2779H117.903C117.465 8.87045 116.46 8.10706 115.07 8.10706C113.681 8.10706 112.712 8.91519 112.353 10.2779H112.352Z" fill="#161515"/>
</g>
</svg>
